{
    "asset" : {
        "generator" : "Khronos glTF Blender I/O v1.7.33",
        "version" : "2.0"
    },
    "scene" : 0,
    "scenes" : [
        {
            "name" : "Scene",
            "nodes" : [
                0
            ]
        }
    ],
    "nodes" : [
        {
            "mesh" : 0,
            "name" : "Rose_flower"
        }
    ],
    "materials" : [
        {
            "doubleSided" : true,
            "name" : "Rose_Flower",
            "pbrMetallicRoughness" : {
                "baseColorFactor" : [
                    0.2810097336769104,
                    0.00290723517537117,
                    0.004117647651582956,
                    1
                ],
                "metallicFactor" : 0,
                "roughnessFactor" : 0.5
            }
        },
        {
            "doubleSided" : true,
            "name" : "Rose_Leaf",
            "pbrMetallicRoughness" : {
                "baseColorFactor" : [
                    0.004937603138387203,
                    0.0732356607913971,
                    0.004053008742630482,
                    1
                ],
                "metallicFactor" : 0,
                "roughnessFactor" : 0.5
            }
        },
        {
            "doubleSided" : true,
            "name" : "Rose_Stem",
            "pbrMetallicRoughness" : {
                "baseColorFactor" : [
                    0.07088185101747513,
                    0.15232515335083008,
                    0.017818592488765717,
                    1
                ],
                "metallicFactor" : 0,
                "roughnessFactor" : 0.5
            }
        }
    ],
    "meshes" : [
        {
            "name" : "Rose_flower",
            "primitives" : [
                {
                    "attributes" : {
                        "POSITION" : 0,
                        "NORMAL" : 1
                    },
                    "indices" : 2,
                    "material" : 0
                },
                {
                    "attributes" : {
                        "POSITION" : 3,
                        "NORMAL" : 4
                    },
                    "indices" : 5,
                    "material" : 1
                },
                {
                    "attributes" : {
                        "POSITION" : 6,
                        "NORMAL" : 7
                    },
                    "indices" : 8,
                    "material" : 2
                }
            ]
        }
    ],
    "accessors" : [
        {
            "bufferView" : 0,
            "componentType" : 5126,
            "count" : 300,
            "max" : [
                1.0633461475372314,
                2.597235918045044,
                1.1779433488845825
            ],
            "min" : [
                -1.1801984310150146,
                0.5391340255737305,
                -1.1144217252731323
            ],
            "type" : "VEC3"
        },
        {
            "bufferView" : 1,
            "componentType" : 5126,
            "count" : 300,
            "type" : "VEC3"
        },
        {
            "bufferView" : 2,
            "componentType" : 5123,
            "count" : 1116,
            "type" : "SCALAR"
        },
        {
            "bufferView" : 3,
            "componentType" : 5126,
            "count" : 39,
            "max" : [
                2.2452614307403564,
                0.08915720134973526,
                1.5357407331466675
            ],
            "min" : [
                -1.670805811882019,
                -2.0462963581085205,
                -2.174170970916748
            ],
            "type" : "VEC3"
        },
        {
            "bufferView" : 4,
            "componentType" : 5126,
            "count" : 39,
            "type" : "VEC3"
        },
        {
            "bufferView" : 5,
            "componentType" : 5123,
            "count" : 126,
            "type" : "SCALAR"
        },
        {
            "bufferView" : 6,
            "componentType" : 5126,
            "count" : 97,
            "max" : [
                1.7109177112579346,
                1.0751551389694214,
                1.570721983909607
            ],
            "min" : [
                -1.5170098543167114,
                -2.9590883255004883,
                -1.5863673686981201
            ],
            "type" : "VEC3"
        },
        {
            "bufferView" : 7,
            "componentType" : 5126,
            "count" : 97,
            "type" : "VEC3"
        },
        {
            "bufferView" : 8,
            "componentType" : 5123,
            "count" : 252,
            "type" : "SCALAR"
        }
    ],
    "bufferViews" : [
        {
            "buffer" : 0,
            "byteLength" : 3600,
            "byteOffset" : 0
        },
        {
            "buffer" : 0,
            "byteLength" : 3600,
            "byteOffset" : 3600
        },
        {
            "buffer" : 0,
            "byteLength" : 2232,
            "byteOffset" : 7200
        },
        {
            "buffer" : 0,
            "byteLength" : 468,
            "byteOffset" : 9432
        },
        {
            "buffer" : 0,
            "byteLength" : 468,
            "byteOffset" : 9900
        },
        {
            "buffer" : 0,
            "byteLength" : 252,
            "byteOffset" : 10368
        },
        {
            "buffer" : 0,
            "byteLength" : 1164,
            "byteOffset" : 10620
        },
        {
            "buffer" : 0,
            "byteLength" : 1164,
            "byteOffset" : 11784
        },
        {
            "buffer" : 0,
            "byteLength" : 504,
            "byteOffset" : 12948
        }
    ],
    "buffers" : [
        {
            "byteLength" : 13452,
            "uri" : "data:application/octet-stream;base64,"
        }
    ]
}
